<?xml version="1.0" encoding="utf-8"?>
<!-- Generator: Adobe Illustrator 23.0.0, SVG Export Plug-In . SVG Version: 6.00 Build 0)  -->
<svg version="1.1" id="Layer_1" xmlns="http://www.w3.org/2000/svg" xmlns:xlink="http://www.w3.org/1999/xlink" x="0px" y="0px"
	 viewBox="0 0 943 943" style="enable-background:new 0 0 943 943;" xml:space="preserve">
<style type="text/css">
	.st0{fill:#008DE4;}
	.st1{fill:#FFFFFF;}
</style>
<circle class="st0" cx="471.5" cy="471.5" r="471"/>
<g>
	<g>
		<path class="st1" d="M572.3,207.7H335.6L316,317.3l213.6,0.3c105.2,0,136.3,38.2,135.4,101.5c-0.5,32.5-14.5,87.4-20.6,105.2
			c-16.2,47.4-49.5,101.6-174.3,101.4l-207.6-0.1l-19.7,109.7h236.1c83.3,0,118.7-9.7,156.2-27c83.2-38.4,132.7-120.5,152.5-227.6
			C817.1,321.2,780.3,207.7,572.3,207.7"/>
		<path class="st1" d="M233.5,416.5c-62,0-70.9,40.4-76.7,64.8c-7.7,32-10.2,44.9-10.2,44.9h242.3c62,0,70.9-40.4,76.7-64.8
			c7.7-32,10.2-44.9,10.2-44.9L233.5,416.5L233.5,416.5z"/>
	</g>
</g>
</svg>
