<?xml version="1.0" encoding="utf-8"?>
<!-- Generator: Adobe Illustrator 23.0.0, SVG Export Plug-In . SVG Version: 6.00 Build 0)  -->
<svg version="1.1" id="Layer_1" xmlns="http://www.w3.org/2000/svg" xmlns:xlink="http://www.w3.org/1999/xlink" x="0px" y="0px"
	 viewBox="0 0 32 32" style="enable-background:new 0 0 32 32;" xml:space="preserve">
<style type="text/css">
	.st0{fill:url(#SVGID_1_);}
</style>
<linearGradient id="SVGID_1_" gradientUnits="userSpaceOnUse" x1="-1952.2351" y1="-2426.9788" x2="-1951.2349" y2="-2426.9788" gradientTransform="matrix(31.992 0 0 -32 62455.9063 -77647.3203)">
	<stop  offset="0" style="stop-color:#00BFFF"/>
	<stop  offset="1" style="stop-color:#6619FF"/>
</linearGradient>
<path class="st0" d="M22.4,16l9.6,9.6h-3.4c-0.6,0-1.1-0.2-1.5-0.6l-8.9-9l8.9-8.9c0.4-0.4,1-0.6,1.5-0.6H32L22.4,16z M4.9,7.1
	c-0.4-0.4-1-0.6-1.5-0.6H0L9.6,16L0,25.6h3.4c0.6,0,1.1-0.2,1.5-0.6l8.9-8.9C13.8,16,4.9,7.1,4.9,7.1z M16,18.2l-8.9,8.9
	c-0.4,0.4-0.6,1-0.6,1.5V32l9.6-9.6l9.6,9.6v-3.4c0-0.6-0.2-1.1-0.6-1.5L16,18.2z M16,13.8l8.9-8.9c0.4-0.4,0.6-1,0.6-1.5V0L16,9.6
	L6.4,0v3.4C6.4,4,6.6,4.5,7,4.9C7,4.9,16,13.8,16,13.8z"/>
</svg>
