<?xml version="1.0" encoding="utf-8"?>
<!-- Generator: Adobe Illustrator 23.0.0, SVG Export Plug-In . SVG Version: 6.00 Build 0)  -->
<svg version="1.1" id="Layer_1" xmlns="http://www.w3.org/2000/svg" xmlns:xlink="http://www.w3.org/1999/xlink" x="0px" y="0px"
	 viewBox="0 0 62.5 62.5" style="enable-background:new 0 0 62.5 62.5;" xml:space="preserve">
<style type="text/css">
	.st0{fill-rule:evenodd;clip-rule:evenodd;fill:#798CE5;}
	.st1{fill-rule:evenodd;clip-rule:evenodd;fill:#FFFFFF;}
</style>
<g>
	<g transform="translate(0 17)">
		<path class="st0" d="M58.7-10c0-0.2-0.1-0.3-0.3-0.4l-27-6.6c-0.1,0-0.1,0-0.2,0l-27,6.6c-0.2,0-0.3,0.2-0.3,0.4
			c0,0.4-3.3,45.1,27.2,55.5c0.1,0,0.2,0,0.3,0C62,35,58.7-9.6,58.7-10"/>
		<path class="st1" d="M53.7-5.3c0-0.2-0.1-0.3-0.3-0.3l-22-5.4c-0.1,0-0.1,0-0.2,0l-22,5.4c-0.1,0-0.3,0.2-0.3,0.3
			C8.9-5,6.2,31.5,31.1,40c0.1,0,0.2,0,0.2,0C56.3,31.5,53.7-5,53.7-5.3"/>
		<g>
			<path id="a" class="st0" d="M31-3L16.3,0.6c-0.1,0-0.2,0.1-0.2,0.2C16,1,14.3,25.3,31,31c0,0,0.1,0,0.2,0C47.8,25.3,46,1,46,0.8
				c0-0.1-0.1-0.2-0.2-0.2L31-3L31-3"/>
		</g>
	</g>
</g>
</svg>
